<?xml version="1.0" standalone="no"?>
<!DOCTYPE svg PUBLIC "-//W3C//DTD SVG 1.1//EN" "http://www.w3.org/Graphics/SVG/1.1/DTD/svg11.dtd" >
<svg xmlns="http://www.w3.org/2000/svg">
<metadata>
Created by FontForge 20120731 at Sat May 13 17:40:37 2017
 By admin
</metadata>
<defs>
<font id="icon-app" horiz-adv-x="1024" >
  <font-face 
    font-family="icon-app"
    font-weight="500"
    font-stretch="normal"
    units-per-em="1024"
    panose-1="2 0 6 3 0 0 0 0 0 0"
    ascent="896"
    descent="-128"
    x-height="792"
    bbox="44 -38 1005 825"
    underline-thickness="0"
    underline-position="0"
    unicode-range="U+0078-E8BF"
  />
<missing-glyph 
 />
    <glyph glyph-name=".notdef" 
 />
    <glyph glyph-name=".notdef" 
 />
    <glyph glyph-name=".null" horiz-adv-x="0" 
 />
    <glyph glyph-name="nonmarkingreturn" horiz-adv-x="341" 
 />
    <glyph glyph-name="x" unicode="x" horiz-adv-x="1001" 
d="M281 543q-27 -1 -53 -1h-83q-18 0 -36.5 -6t-32.5 -18.5t-23 -32t-9 -45.5v-76h912v41q0 16 -0.5 30t-0.5 18q0 13 -5 29t-17 29.5t-31.5 22.5t-49.5 9h-133v-97h-438v97zM955 310v-52q0 -23 0.5 -52t0.5 -58t-10.5 -47.5t-26 -30t-33 -16t-31.5 -4.5q-14 -1 -29.5 -0.5
t-29.5 0.5h-32l-45 128h-439l-44 -128h-29h-34q-20 0 -45 1q-25 0 -41 9.5t-25.5 23t-13.5 29.5t-4 30v167h911zM163 247q-12 0 -21 -8.5t-9 -21.5t9 -21.5t21 -8.5q13 0 22 8.5t9 21.5t-9 21.5t-22 8.5zM316 123q-8 -26 -14 -48q-5 -19 -10.5 -37t-7.5 -25t-3 -15t1 -14.5
t9.5 -10.5t21.5 -4h37h67h81h80h64h36q23 0 34 12t2 38q-5 13 -9.5 30.5t-9.5 34.5q-5 19 -11 39h-368zM336 498v228q0 11 2.5 23t10 21.5t20.5 15.5t34 6h188q31 0 51.5 -14.5t20.5 -52.5v-227h-327z" />
    <glyph glyph-name="email" unicode="&#xe64a;" 
d="M832 113h-640q-30 0 -52 22t-22 52v394q0 30 22 52t52 22h640q31 0 52.5 -22t21.5 -52v-394q0 -30 -21.5 -52t-52.5 -22zM855 188v392l-228 -196zM512 335l316 270h-632zM828 162l-230 197l-86 -73l-86 73l-230 -197h632zM397 384l-228 196v-392z" />
    <glyph glyph-name="phone" unicode="&#xe622;" 
d="M692 -34h-363q-40 0 -68.5 30.5t-28.5 74.5v626q0 43 28.5 74t68.5 31h363q40 0 68.5 -31t28.5 -74v-626q0 -44 -28.5 -74.5t-68.5 -30.5zM740 697q0 22 -14 37t-34 15h-363q-20 0 -34.5 -15t-14.5 -37v-26h460v26zM740 619h-460v-418h460v418zM740 149h-460v-78
q0 -22 14.5 -37.5t34.5 -15.5h363q20 0 34 15.5t14 37.5v78zM510.5 45q-15.5 0 -26 11t-10.5 27.5t10.5 28t26 11.5t26 -11.5t10.5 -28t-10.5 -27.5t-26 -11z" />
    <glyph glyph-name="withdraw" unicode="&#xe6aa;" 
d="M892 175v1v0v1h-1v0.5v0.5v0l-1 1v0l-1 1v0q0 1 -1 1v0v1h-1v1v0h-1v1v0l-1 1h-1v0v1l-121 99q-9 8 -21 7t-19.5 -10.5t-6 -21t10.5 -19.5l60 -49h-186q-11 0 -19.5 -8.5t-8.5 -20.5t8.5 -20t19.5 -8h186l-60 -50q-9 -8 -10.5 -19.5t6.5 -21.5t22 -10q10 0 18 7l121 100
h1v0.5v0.5l0.5 0.5l0.5 0.5h1v1v0q1 0 1 1v0v0q2 2 3 4v0v0v1v0q1 0 1 1v0v1q1 0 1 1v0q2 4 2 9q0 7 -3 13v0v0zM652 345v5q0 11 -7.5 18.5t-18.5 7.5h-90v36h55q11 0 18.5 7.5t7.5 18.5v5q0 11 -7.5 18.5t-18.5 7.5h-15l62 62q7 8 7 19t-7 19l-3 3q-8 8 -19 8t-19 -8
l-89 -89l-82 89q-8 8 -19 8t-19 -8l-3 -3q-8 -8 -8 -19t8 -19l57 -62h-19q-11 0 -18.5 -7.5t-7.5 -18.5v-5q0 -11 7.5 -18.5t18.5 -7.5h55v-36h-90q-11 0 -18.5 -7.5t-7.5 -18.5v-5q0 -11 7.5 -18.5t18.5 -7.5h90v-104q0 -11 8 -19t19 -8v0h4q11 0 19 8t8 19v104h90
q11 0 18.5 7.5t7.5 18.5v0zM781 658q-114 114 -274 114t-274 -114t-114 -274t113.5 -274t274.5 -114v0q11 0 19.5 8t8.5 20t-8.5 20.5t-19.5 8.5q-69 0 -127 24t-107 73t-73 107t-24 127t24 127t73 107t107 73t127 24t127 -24t107 -73t73 -107t24 -127v0q0 -12 8.5 -20.5
t20.5 -8.5t20 8.5t8 20.5v0q0 160 -114 274v0z" />
    <glyph glyph-name="property" unicode="&#xe60c;" 
d="M888 524l-304 211q-25 20 -54 22.5t-48 -5t-33 -19.5l-324 -222q-38 -25 -31 -52q6 -24 45 -27h1h76v-336q0 -35 24 -60.5t57 -25.5h224q10 0 17 8q7 6 7 16v200h110q9 0 16 6.5t7 16t-7 16.5t-16 7h-110v50h110q9 0 16 6.5t7 16t-7 16.5t-16 7h-78l81 87q6 7 6 16.5
t-7 16t-16.5 6t-15.5 -7.5l-103 -110l-100 111q-6 7 -15.5 7.5t-16.5 -6t-7.5 -16t6.5 -16.5l79 -88h-78q-10 0 -16.5 -7t-6.5 -16.5t6.5 -16t16.5 -6.5h110v-50h-110q-10 0 -16.5 -7t-6.5 -16.5t6.5 -16t16.5 -6.5h110v-178h-203q-15 0 -25.5 12t-10.5 28v355v2v1v0.5v0.5
q0 9 -7 16t-16 7h-81l318 218q1 1 3 2q5 5 13 9.5t28 5t37 -13.5l1 -1l305 -211q8 -6 15 -13q-5 -1 -11 -1h-72v0h-0.5h-0.5v0q-10 0 -16.5 -6.5t-6.5 -16.5v-354q0 -16 -10.5 -28t-25.5 -12h-116q-9 0 -16 -6.5t-7 -16t7 -16.5t16 -7h116q34 0 58 25.5t24 60.5v331l50 1
q53 -1 62 27q11 32 -40 69z" />
    <glyph glyph-name="service-recharge" unicode="&#xe60b;" 
d="M770 -8h-525q-44 0 -74.5 30.5t-30.5 74.5v105h52v-105q0 -22 15.5 -37.5t37.5 -15.5h525q22 0 37.5 15.5t15.5 37.5v578q0 22 -15.5 37t-37.5 15h-525q-22 0 -37.5 -15t-15.5 -37v-105h-52v105q0 43 30.5 74t74.5 31h525q44 0 74.5 -31t30.5 -74v-578q0 -44 -30.5 -74.5
t-74.5 -30.5v0zM231 550q-8 8 -8 18.5t8 18.5t19 8t18 -8l181 -181q9 -8 8 -20q1 -12 -8 -20l-181 -181q-7 -8 -18 -8t-19 8t-8 18.5t8 18.5l138 138h-203q-11 0 -18.5 7.5t-7.5 18.5t7.5 18.5t18.5 7.5h203zM591 325v40h-77q-25 0 -25 18t25 20h53l-91 139q-2 0 -4 5
q-5 6 -5 18q0 15 20 19q16 -2 27 -15l102 -153l101 153q9 13 27 15q18 -4 20 -19q0 -7 -7 -18q-2 -2 -2 -5l-91 -139h53q23 -2 25 -20q-2 -18 -25 -18h-77v-40h77q23 -2 25 -19q-2 -18 -25 -18h-77v-89q-2 -22 -24 -22q-25 0 -25 22v89h-77q-25 0 -25 17.5t25 19.5h77z" />
    <glyph glyph-name="time" unicode="&#xe612;" 
d="M540 679l1 1v1v57h76q8 0 14 5.5t6 13.5v20q0 7 -6 13t-14 6h-210q-8 0 -14 -6t-6 -13v-20q0 -8 6 -13.5t14 -5.5h76v-57v-1l1 -1q-138 -11 -232.5 -112.5t-94.5 -240.5q0 -96 47.5 -178t129.5 -129.5t178 -47.5t178 47.5t129.5 129.5t47.5 178q0 139 -94.5 240.5
t-232.5 112.5zM512 28q-123 0 -210 87.5t-87 210.5t87 210t210 87t210 -87t87 -210t-87 -210.5t-210 -87.5zM540 386v137q0 10 -8 17t-20 7t-20 -7t-8 -17v-137q-18 -8 -28.5 -24t-10.5 -36q0 -28 19.5 -47.5t47.5 -19.5t47.5 19.5t19.5 47.5q0 20 -10.5 36t-28.5 24z" />
    <glyph glyph-name="energy" unicode="&#xe6da;" 
d="M816 779h-593q-11 0 -18 -7t-7 -17v-742q0 -10 7 -17.5t18 -7.5h593q10 0 17.5 7.5t7.5 17.5v742q0 10 -7.5 17t-17.5 7zM791 38h-544v692h544v-692zM322 384h395q10 0 17.5 7t7.5 18v247q0 10 -7.5 17.5t-17.5 7.5h-395q-11 0 -18 -7.5t-7 -17.5v-247q0 -11 7 -18t18 -7
zM346 631h346v-198h-123q0 21 -14.5 35.5t-35.5 14.5h-3l-79 79q-10 10 -22 12t-19.5 -5.5t-5.5 -19.5t12 -22l73 -72q-5 -10 -5 -22h-124v198zM519 310q-41 0 -70 -29t-29 -70t29 -70t70 -29t70 29t29 70t-29 70t-70 29zM519.5 162q-20.5 0 -35 14.5t-14.5 34.5t14.5 34.5
t35 14.5t35 -14.5t14.5 -34.5t-14.5 -34.5t-35 -14.5zM321.5 236q10.5 0 17.5 7t7 17.5t-7 17.5t-17.5 7t-17.5 -7t-7 -17.5t7 -17.5t17.5 -7zM717 285q-10 0 -17.5 -7t-7.5 -17.5t7.5 -17.5t17.5 -7t17.5 7t7.5 17.5t-7.5 17.5t-17.5 7z" />
    <glyph glyph-name="my" unicode="&#xe609;" 
d="M637 344q52 32 83 86t31 118q0 99 -70 168.5t-169 69.5t-169 -69.5t-70 -168.5q0 -64 31 -118t83 -86q-122 -34 -199.5 -126t-77.5 -207q0 -11 2 -29h67q-2 15 -2 29q0 79 45 146.5t122 106.5t168 39t168 -39t122 -106.5t45 -146.5q0 -14 -2 -29h67q2 18 2 29
q0 115 -77.5 207t-199.5 126zM333 548q0 74 52.5 126.5t126.5 52.5t126.5 -52.5t52.5 -126.5t-52.5 -126.5t-126.5 -52.5t-126.5 52.5t-52.5 126.5zM405.5 152q-14.5 0 -25 -10.5t-10.5 -25.5t10.5 -26t25 -11t25 11t10.5 26t-10.5 25.5t-25 10.5zM524 152
q-15 0 -25.5 -10.5t-10.5 -25.5t10.5 -26t25.5 -11t25 11t10 26t-10 25.5t-25 10.5zM642 152q-15 0 -25 -10.5t-10 -25.5t10 -26t25 -11t25.5 11t10.5 26t-10.5 25.5t-25.5 10.5z" />
    <glyph glyph-name="order" unicode="&#xe670;" 
d="M793 228v0l-16 -40v480q0 23 -16.5 39.5t-40.5 16.5h-416q-24 0 -40.5 -16.5t-16.5 -40.5v-564q0 -24 16.5 -40.5t40.5 -16.5h331l-40 -16zM833 188l-198 -198h-331q-47 0 -80 33t-33 80v564q0 47 33 80.5t80 33.5h416q47 0 80 -33t33 -80v-480zM659 235q-35 0 -60 -25
t-25 -60v-104h38l19 19v85q0 12 8 20t20 8h85l38 37l-5 20h-118zM400 502q-12 0 -20 -8.5t-8 -20t8 -20t20 -8.5h81v-31h-81q-12 0 -20 -8t-8 -20t8 -20t20 -8h81v-42q0 -12 8.5 -20.5t20 -8.5t20 8.5t8.5 20.5v42h87q12 0 20 8t8 20t-8 20t-20 8h-87v31h87q12 0 20 8.5
t8 20t-8 20t-20 8.5h-47l62 61q8 8 8 19.5t-8 20t-20 8.5t-20 -8l-90 -88l-91 88q-8 8 -19.5 8t-20 -8.5t-8 -20t8.5 -19.5l62 -61h-42zM400 502z" />
    <glyph glyph-name="service-withdraw" unicode="&#xe627;" 
d="M255 -1v0q-42 0 -72 30t-30 72v565q0 42 30 72t72 30h514q42 0 72 -30t30 -72v-103h-51v103q0 21 -15 36t-36 15h-514q-21 0 -36 -15t-15 -36v-565q0 -21 15 -36t36 -15h514q21 0 36 15t15 36v103h51v-103q0 -42 -30 -72t-72 -30h-514v0zM255 -1zM651 524q-8 7 -8 17.5
t7.5 18.5t18 8t18.5 -8l177 -177q8 -8 7 -19q1 -12 -7 -20l-177 -177q-8 -7 -18.5 -7t-18 7.5t-7.5 18t8 17.5l134 135h-198q-11 0 -18.5 7.5t-7.5 18t7.5 18t18.5 7.5h198zM651 524zM346 315v38h-76q-23 0 -23 17.5t23 19.5h52l-88 136q-3 0 -5 5q-4 6 -4 17q0 15 19 20
q15 -3 26 -16l100 -149l99 149q9 13 26 16q17 -5 20 -20q0 -6 -7 -17q-2 -2 -2 -5l-89 -136h52q22 -2 24 -19q-2 -18 -24 -18h-75v-38h75q22 -3 24 -20q-2 -17 -24 -17h-75v-87q-3 -21 -24 -21q-24 0 -24 21v87h-76q-23 0 -23 17t23 20h76zM346 315z" />
    <glyph glyph-name="area" unicode="&#xe62b;" 
d="M765 131h-574v506h203v68h-270v-642h709v203h-68v-135zM333 435v33h-44v-260h41v112q0 50 10 71q7 13 27 33q20 11 40 11q19 0 34 -11q10 -6 17 -26q3 -11 3 -58v-132h41v102q0 44 7 71q4 19 27 37q18 13 40 13q24 0 34 -10q10 -7 17 -27q3 -10 3 -50v-142h44v142
q0 70 -27 97t-61 27q-29 0 -57 -16q-22 -14 -34 -38q-4 17 -27 34q-28 17 -54 17q-53 14 -81 -30zM802 414l58 61q7 8 13.5 16t14 18.5t9.5 12.5q13 27 13 44q0 31 -23 54q-12 12 -25 14.5t-36 2.5q-34 0 -58 -23q-21 -22 -26 -65h30q0 27 17 44q13 14 33 14
q24 0 37.5 -13.5t13.5 -33.5q0 -19 -10 -34q-13 -20 -34 -41l-98 -104h176v30h-105v3z" />
    <glyph glyph-name="department" unicode="&#xe687;" horiz-adv-x="1118" 
d="M952 453q-15 -32 -48 -44.5t-72 3.5q-43 19 -47 78q-1 8 -7 14t-14.5 6t-14.5 -6t-7 -14q-4 -59 -47 -78q-47 -22 -87 4t-40 73q0 8 -6.5 14.5t-15.5 6.5q-8 0 -14.5 -6t-6.5 -14q-4 -59 -47 -78q-47 -22 -87.5 4t-40.5 73q0 8 -6.5 14.5t-14.5 6.5q-10 0 -16 -7t-6 -16
q3 -36 -18 -55q-43 -37 -88 -27.5t-62 49.5l-1 4q-2 5 -3 10q-4 15 2 32q7 22 27.5 86.5t38 118l17.5 53.5q2 6 13 6h626q11 0 13 -6l82 -252q9 -28 -2 -53zM821 24h-542q-20 0 -34 13.5t-14 32.5v291q63 6 98 57q17 -26 46 -42t62.5 -16t62 16t46.5 42q18 -26 46.5 -42
t62 -16t62.5 16t47 42q17 -26 44.5 -41.5t60.5 -15.5v-291q0 -19 -14 -32.5t-34 -13.5zM1002 482q0 10 -1 15l-0.5 0.5l-0.5 0.5l-87 273q-5 15 -20 25t-34 10h-626q-19 0 -34 -10t-20 -25l-87 -273q-3 -16 -2 -23q6 -38 30.5 -67.5t59.5 -40.5v-297q0 -40 29 -68.5
t70 -28.5h542q41 0 70 28.5t29 68.5v298q37 14 59.5 44.5t22.5 69.5z" />
    <glyph glyph-name="number" unicode="&#xe691;" 
d="M413 209h-58l-189 293q-8 12 -13 24h-1q2 -12 2 -52v-265h-49v376h61l184 -287q14 -20 16 -26h1q-2 16 -2 55v258h48v-376zM485 393q0 91 49.5 145t133.5 54q79 0 126.5 -53t47.5 -137q0 -92 -49 -145.5t-131 -53.5q-80 0 -128.5 52.5t-48.5 137.5zM536 397
q0 -68 35 -109.5t91 -41.5q60 0 94.5 39.5t34.5 110.5q0 73 -33.5 112.5t-92.5 39.5q-57 0 -93 -41.5t-36 -109.5zM871 234q0 13 9 22t23 9q13 0 22 -9t9 -22q0 -12 -9 -21t-23 -9q-13 0 -22 9t-9 21z" />
    <glyph glyph-name="index" unicode="&#xe605;" horiz-adv-x="1110" 
d="M982 457l-1 1l-369 326q-23 22 -54 22t-53 -22l-371 -327q-16 -17 -20.5 -40t4.5 -45q9 -21 27 -34q20 -14 44 -14h10v-284q0 -32 22.5 -55t55.5 -23h131q32 0 54.5 23t22.5 55v161h145v-161q0 -32 22.5 -55t54.5 -23h131q32 0 55 23t23 55v284h11q25 0 45 14
q18 13 27 34q9 22 4.5 45t-21.5 40v0v0zM927 373h-61v-333q0 -12 -8 -20t-20 -8h-131q-11 0 -19.5 8t-8.5 20v210h-243v-210q0 -12 -8.5 -20t-19.5 -8h-131q-12 0 -20.5 8t-8.5 20v333h-59q-18 0 -25.5 18t5.5 31l369 326q9 8 20.5 8t19.5 -8l369 -326q13 -13 6 -31t-26 -18
v0v0z" />
    <glyph glyph-name="account" unicode="&#xe637;" horiz-adv-x="1025" 
d="M660 71q-70 -33 -148 -33q-94 0 -173.5 46t-126 126t-46.5 174t46.5 174t126 126t174 46t174 -46t126 -126t46.5 -174q0 -101 -54 -186q-10 -15 -22 -30q-1 -1 -2.5 -6.5t0.5 -14t9 -12.5q9 -4 17 -2t14 7l6 4q8 11 15 22q66 99 66 218q0 107 -53 198.5t-144 144.5
t-198.5 53t-198.5 -53t-144 -144.5t-53 -198.5t53 -198.5t144 -144.5t198 -53q89 0 169 38v0q1 1 4.5 5.5t6.5 11.5t-1 15q-6 16 -31 13zM650 516.5q0 58.5 -41.5 99.5t-99.5 41t-99.5 -41t-41.5 -99.5t41.5 -99.5t99.5 -41t99.5 41t41.5 99.5zM418 516.5q0 37.5 26.5 64.5
t64.5 27t64.5 -27t26.5 -64.5t-26.5 -64.5t-64.5 -27t-64.5 27t-26.5 64.5zM753 232q-17 77 -76 130t-138 62q-2 1 -12 0.5t-12 -0.5l2 -48q66 -1 117 -41.5t68 -102.5h-379q17 61 66 101q10 18 -1 30q-5 6 -13 7.5t-13 -0.5l-6 -1q-66 -54 -84 -137q-5 -24 -6 -49h492
q0 25 -5 49z" />
    <glyph glyph-name="days" unicode="&#xe85e;" 
d="M538 800q99 -4 184 -54q10 -5 13 -15t-2 -20q-6 -12 -19 -13q-10 -2 -19 4q-64 36 -136 44t-138 -10.5t-123.5 -63t-93.5 -108.5t-44 -136.5t10.5 -138t63 -123.5t108.5 -94t136.5 -43.5t138 11t123.5 62.5t94 108q25 46 37 97q31 133 -36 252q-7 11 -6 24q4 19 22 21
t26 -13q23 -40 36 -83q27 -82 16.5 -163.5t-46.5 -151t-100 -123t-144 -78.5q-82 -26 -163.5 -15.5t-151 46.5t-123 100t-78.5 144q-26 81 -15.5 163t46.5 151.5t100 123t144 77.5q11 4 19 6q60 14 121 12zM460 195h-110q-18 0 -32.5 12t-17.5 30v9v250q0 18 11 32t29 17
q13 1 25 0q10 -1 16 -8q7 -8 6 -18q-1 -9 -7.5 -15t-16.5 -7h-12q-2 0 -2 -1v-251q0 -1 2 -2h350v251v3h-14q-9 0 -15.5 6t-8.5 15q0 10 6 18q6 7 15 8q15 2 29 -1q16 -5 26 -18t10 -29v-250q1 -20 -13.5 -35t-34.5 -15h-3zM542 499h-66q-10 0 -16.5 6.5t-6.5 16.5
q0 15 14 21q4 2 9 1h95q9 1 16 -6t7 -16.5t-6 -15.5q-7 -7 -17 -7h-29zM419 430h-2q-8 1 -14 6.5t-7 13.5v90q0 10 8 17q7 7 16.5 6.5t16.5 -7.5q4 -5 5 -12v-5v-85q1 -11 -7 -18q-7 -6 -16 -6zM628 430q-17 0 -22 15q-2 4 -2 8v87q0 9 7 16t16 7h1q9 0 15.5 -6.5t7.5 -15.5
v-89q-1 -8 -6.5 -14t-13.5 -7z" />
    <glyph glyph-name="recharge" unicode="&#xe660;" 
d="M626 384q11 0 19.5 8t8.5 20t-8.5 20t-19.5 8h-86v1l104 109q9 8 8.5 20t-9 20t-20 7.5t-19.5 -8.5l-89 -94l-95 94q-8 8 -19.5 8t-20 -8t-8.5 -19.5t8 -20.5l104 -104v-5h-83q-12 0 -20 -8t-8 -20t8 -20t20 -8h83v-56h-83q-12 0 -20 -8.5t-8 -20t8 -19.5t20 -8h83v-84
q0 -12 8 -20t20 -8t20 8t8 20v84h86q11 0 19.5 8t8.5 19.5t-8.5 20t-19.5 8.5h-86v56h86zM905 404v-19h-55v-1q0 -92 -45.5 -169.5t-123 -122.5t-169 -45t-169.5 45t-123 123t-45 169t45 169t123 123t169 45v0v56v0q-106 0 -197 -52.5t-144 -143t-53 -197.5t53 -197.5
t143.5 -143t197.5 -52.5t197.5 52.5t143.5 143t53 197.5q0 10 -1 20zM878 617h-208q-11 0 -19.5 8.5t-8.5 20t8.5 20t19.5 8.5h208q11 0 19.5 -8.5t8.5 -20t-8.5 -20t-19.5 -8.5zM746 543v206q0 12 8 20.5t20 8.5t20 -8.5t8 -20.5v-206q0 -12 -8 -20.5t-20 -8.5t-20 8.5
t-8 20.5zM522 721h-10v56h10q12 0 20 -8t8 -20t-8 -20t-20 -8zM877.5 413q-11.5 0 -19.5 -8t-8 -20v0h55v0q0 12 -8 20t-19.5 8z" />
    <glyph glyph-name="calendar" unicode="&#xe611;" 
d="M676 588q15 0 26.5 10.5t11.5 25.5v165q0 15 -11.5 25.5t-26.5 10.5t-25.5 -10.5t-10.5 -25.5v-165q0 -15 10.5 -25.5t25.5 -10.5zM604 734h-184v-55h184v55zM819 734h-69v-55h71q16 0 27.5 -11.5t11.5 -26.5v-127h-695v127q0 15 11 26.5t27 11.5h71v55h-68
q-39 0 -67.5 -28.5t-28.5 -67.5v-558q0 -40 27.5 -68t67.5 -28h614q39 0 67.5 28t28.5 68v558q0 39 -28.5 67.5t-67.5 28.5zM860 77q0 -16 -11.5 -27t-27.5 -11h-618q-16 0 -27 11t-11 27v382h695v-382zM310 295q23 0 39 16t16 39t-16 39t-39 16t-39 -16t-16 -39t16 -39
t39 -16zM511.5 295q22.5 0 39 16t16.5 39t-16.5 39t-39 16t-38.5 -16t-16 -39t16 -39t38.5 -16zM309 93q23 0 39 16.5t16 39t-16 38.5t-39 16t-39 -16t-16 -38.5t16 -39t39 -16.5zM511.5 93q22.5 0 39 16.5t16.5 39t-16.5 38.5t-39 16t-38.5 -16t-16 -38.5t16 -39
t38.5 -16.5zM713 295q23 0 39 16t16 39t-16 39t-39 16t-39 -16t-16 -39t16 -39t39 -16zM347 588q15 0 26 10.5t11 25.5v165q0 15 -11 25.5t-26 10.5t-25.5 -10.5t-10.5 -25.5v-165q0 -15 10.5 -25.5t25.5 -10.5z" />
    <glyph glyph-name="air-conditioning" unicode="&#xe621;" 
d="M830 751h-634q-40 0 -68.5 -28.5t-28.5 -68.5v-229q0 -40 28.5 -68.5t68.5 -28.5h634q41 0 69 28.5t28 68.5v229q0 40 -28 68.5t-69 28.5zM884 415q0 -19 -13.5 -33t-31.5 -14h-654q-18 0 -31.5 14t-13.5 33v245q0 20 13.5 33.5t31.5 13.5h654q18 0 31.5 -13.5
t13.5 -33.5v-245zM804 539h-599q-8 0 -13 -5t-5 -12t5.5 -12.5t12.5 -5.5h599q8 0 13 5.5t5 12.5t-5.5 12t-12.5 5zM804 468h-599q-8 0 -13 -5t-5 -12t5.5 -12t12.5 -5h599q8 0 13 5t5 12t-5.5 12t-12.5 5zM293 243q-11 30 -42 42q-7 3 -13.5 0t-9 -10t0.5 -13.5t10 -9.5
q16 -6 21 -21q8 -20 -11 -53q-14 -25 -17 -48.5t3.5 -39.5t15.5 -27t20 -18q4 -2 9 -2q10 0 15 9q3 6 1.5 13t-8.5 11q-2 1 -5.5 3.5t-8.5 10t-7 16.5t0.5 23.5t12.5 30.5q25 47 13 83zM526 243q-11 30 -42 42q-7 3 -13.5 0t-9 -10t0.5 -13.5t10 -9.5q16 -6 21 -21
q8 -20 -11 -53q-14 -25 -17 -48.5t3.5 -39.5t15.5 -27t20 -18q4 -2 9 -2q10 0 15 9q3 6 1.5 13t-8.5 11q-2 1 -5.5 3.5t-8.5 10t-7 16.5t0.5 23.5t12.5 30.5q26 47 13 83zM413 220q-6 15 -17 26t-18.5 15t-9.5 4q-7 3 -13.5 0t-9.5 -10q-1 -3 -1 -7q0 -12 11 -16
q18 -8 24 -25q8 -22 -12 -57q-14 -26 -17.5 -50t1 -39t14 -28t15 -17t10.5 -8v0q4 -2 9 -2q10 0 15 9q3 6 1.5 13t-8.5 10q-3 2 -6 5t-9 11.5t-8 18t0.5 25.5t13.5 34q29 50 15 88zM776 213q7 4 9 12t-2 15t-12 9t-16 -2q-9 -5 -9 -17l-29 -17v35v1q10 6 10 17v0
q0 8 -5.5 13.5t-14.5 5.5v0v0q-8 0 -13.5 -5.5t-5.5 -13.5v0q0 -13 12 -19v-37l-35 20q0 11 -9 17q-7 4 -15 2t-12 -9t-2 -15t9 -12q9 -5 20 0l30 -18l-30 -17q-11 6 -20 0q-7 -4 -9 -12t2 -15q4 -8 12 -10t15 3q9 5 9 16l35 20v-36q-12 -5 -12 -18v-1q0 -8 5.5 -13.5
t13.5 -5.5v0v0q9 0 14.5 5.5t5.5 13.5v1q0 12 -10 16v35l29 -17q0 -11 9 -16q7 -4 15 -2t13 9q4 6 2 14.5t-9 12.5q-9 5 -20 0l-31 17l31 18q10 -6 20 0v0z" />
    <glyph glyph-name="control" unicode="&#xe8b9;" 
d="M878 131h-370q-9 37 -39.5 60.5t-69 23.5t-69 -23.5t-39.5 -60.5h-145q-11 0 -19.5 -8.5t-8.5 -20t8.5 -19.5t19.5 -8h145q9 -37 39.5 -61t69 -24t69 24t39.5 61h370q11 0 19.5 8t8.5 19.5t-8.5 20t-19.5 8.5zM399.5 46q-23.5 0 -40.5 16.5t-17 40t17 40.5t40.5 17
t40.5 -17t17 -40.5t-17 -40t-40.5 -16.5zM878 412h-145q-9 37 -39.5 60.5t-69 23.5t-69 -23.5t-39.5 -60.5h-370q-11 0 -19.5 -8t-8.5 -20t8.5 -20t19.5 -8h370q9 -37 39.5 -60.5t69 -23.5t69 23.5t39.5 60.5h145q11 0 19.5 8t8.5 20t-8.5 20t-19.5 8zM624.5 327
q-23.5 0 -40.5 16.5t-17 40.5t17 40.5t40.5 16.5t40.5 -16.5t17 -40.5t-17 -40.5t-40.5 -16.5zM146 637h145q9 -37 39.5 -60.5t69 -23.5t69 23.5t39.5 60.5h370q11 0 19.5 8.5t8.5 20t-8.5 19.5t-19.5 8h-370q-9 37 -39.5 61t-69 24t-69 -24t-39.5 -61h-145q-11 0 -19.5 -8
t-8.5 -19.5t8.5 -20t19.5 -8.5zM399.5 722q23.5 0 40.5 -16.5t17 -40t-17 -40.5t-40.5 -17t-40.5 17t-17 40.5t17 40t40.5 16.5z" />
    <glyph glyph-name="wechat" unicode="&#xe60a;" 
d="M341 555q-13 0 -25 -8.5t-12 -20.5q0 -13 11 -21.5t26 -8.5q12 0 20.5 8.5t8.5 21t-8.5 21t-20.5 8.5zM581 384q-9 0 -16 -7.5t-7 -15.5q0 -9 7.5 -16t15.5 -7q12 0 21 7.5t9 15.5q0 23 -30 23zM908 658q0 49 -35 83.5t-84 34.5h-551q-49 0 -83.5 -34.5t-34.5 -83.5v-551
q0 -49 34.5 -84t83.5 -35h551q49 0 84 35t35 84v551zM416 255q-23 0 -82 14l-82 -40l23 69q-46 30 -71 71t-25 88q0 83 68.5 142t165.5 59q87 0 155 -47t82 -118h-23q-84 0 -142.5 -54t-58.5 -131q0 -16 7 -49q0 -4 -17 -4zM762 173l17 -59l-66 36q-46 -13 -69 -13
q-84 0 -142.5 50t-58.5 121q0 70 58.5 121t142.5 51q80 0 140.5 -50.5t60.5 -121.5q0 -75 -83 -135zM710 384q-10 0 -16.5 -7.5t-6.5 -15.5q0 -9 7.5 -16t15.5 -7q12 0 20.5 7.5t8.5 15.5q0 23 -29 23zM505 496q13 0 21.5 8.5t8.5 21t-8.5 21t-21.5 8.5t-24.5 -8.5
t-11.5 -20.5t11.5 -21t24.5 -9z" />
    <glyph glyph-name="electricity" unicode="&#xe643;" 
d="M187 609q7 10 19 10q7 0 13 -4q8 -5 10 -15t-4 -18q-61 -87 -61 -196q0 -100 52 -183q3 -4 3 -11q0 -10 -7 -17t-17 -7q-13 0 -20 12q-59 93 -59 205v1q0 122 71 223zM286 58q-10 7 -10 19q0 8 4 14q7 10 19 10q7 0 13 -4q89 -62 198 -62v0h1q99 0 183 53q4 2 11 2
q13 0 20 -11q3 -6 3 -12q0 -13 -11 -20q-93 -59 -206 -59q-1 0 -1 1q-123 0 -224 69v0zM286 709q99 70 223 70h1q113 0 207 -59q9 -5 11 -14.5t-3 -17.5q-7 -11 -20 -11q-7 0 -13 3q-82 52 -181 52h-1q-109 0 -198 -62q-6 -4 -13 -4q-12 0 -19 10q-5 6 -5 14q0 12 11 19v0z
M852 185q-7 -11 -21 -11q-6 0 -12 3q-11 7 -11 20q0 7 3 12q49 82 49 177v1q0 107 -61 195q-4 4 -4 12q0 12 11 19q6 4 13 4q12 0 19 -10q69 -99 69 -221v0q0 -108 -55 -201v0zM512 677q123 0 210 -86.5t87 -209t-87 -209t-210 -86.5t-210.5 86.5t-87.5 209t87.5 209
t210.5 86.5zM623 409q4 0 6 -4.5t-1 -8.5l-128 -182q-3 -5 -7.5 -2.5t-4.5 8.5l15 98q2 9 -6 9h-102q-4 0 -6 4.5t1 8.5l132 189q4 5 8.5 2.5t3.5 -8.5l-16 -105q-1 -9 7 -9h98v0zM512 135q102 0 174.5 72t72.5 174t-72.5 174t-175 72t-175 -72t-72.5 -174t72.5 -174
t175.5 -72v0z" />
    <glyph glyph-name="hot-water" unicode="&#xe8ba;" 
d="M535.5 590.5q-6.5 6.5 -15.5 6.5t-16 -6l-129 -129q-38 49 -34 113t49 109q49 50 119 50q58 0 103 -35l-51 -51q-6 -6 -6 -15.5t6.5 -16t16 -6.5t15.5 7l68 67q6 7 6 16.5t-6 15.5q-63 63 -152 63q-86 0 -148 -60q-3 4 -9 6l-68 27q-44 17 -83 -9q-41 -28 -42 -78
q-1 -2 -1 -3v-635q0 -9 7 -15.5t16 -6.5t15.5 6.5t6.5 15.5v635q0 1 1 1q0 28 22 42q20 13 41 5l65 -25q-36 -54 -36 -120q0 -89 62 -152q7 -6 16 -6t16 6l146 146q6 6 6 15.5t-6.5 16zM456 395q-6 7 -15.5 7t-16 -6.5t-7 -15.5t6.5 -16l54 -57q7 -6 16 -6q10 0 16.5 6
t6.5 15.5t-6 16.5zM585 261q-7 6 -16 6.5t-16 -6t-7 -16t6 -16.5l55 -56q6 -7 16 -7q9 0 15.5 6.5t7 16t-6.5 15.5zM585 377q-7 6 -16 6.5t-16 -6t-7 -16t6 -16.5l55 -56q6 -7 16 -7q9 0 15.5 6.5t7 16t-6.5 15.5zM607 411q9 0 16 6.5t7 16t-7 16.5l-54 56q-6 7 -15.5 7
t-16.5 -6.5t-7 -16t7 -15.5l54 -57q7 -7 16 -7zM697 367q-6 7 -15.5 7t-16.5 -6.5t-7 -16t7 -15.5l54 -57q7 -7 16 -7t16 6.5t7 16t-7 16.5zM714 493q-7 7 -16 7t-16 -6.5t-7 -16t7 -15.5l54 -57q7 -6 16 -6t16 6t7 15.5t-7 16.5zM714 649q-7 7 -16 7t-16 -6.5t-7 -15.5
t7 -16l54 -56q7 -7 16 -7t16 6.5t7 15.5t-7 16zM899 437l-54 56q-7 7 -16 7t-16 -6.5t-7 -16t6 -15.5l55 -57q6 -6 16 -6q9 0 15.5 6t7 15.5t-6.5 16.5z" />
    <glyph glyph-name="cold-water" unicode="&#xe8bb;" 
d="M352 312q0 -64 45 -106t110 -42q63 0 109 44.5t46 103.5q0 28 -15 58t-36 57t-51 83.5t-53 126.5q-16 -57 -44 -110.5t-51.5 -85t-41.5 -66.5t-18 -63zM582 398q23 -34 31.5 -51t8.5 -35q0 -42 -33 -74q-17 -16 -37 -25q-22 -9 -45 -9q-49 0 -82 31q-16 15 -24 34
q-9 20 -9 43q0 13 7.5 31t15.5 31.5t26 39.5q45 68 67 112q27 -57 74 -128zM197 443q0 27 -21 42q18 57 51 103h-1q18 24 38 44q49 48 112 75q65 28 136.5 28t136.5 -28q63 -27 111.5 -75.5t74.5 -111.5q23 -51 27 -110l29 68q-31 129 -137 212.5t-242 83.5
q-131 0 -234.5 -78t-139.5 -201q-20 -2 -33 -17t-13 -35q0 -21 15.5 -36.5t37.5 -15.5t37 15.5t15 36.5zM932 324q0 22 -15.5 37t-37 15t-37 -15t-15.5 -37q0 -26 21 -42q-18 -56 -51 -102l7 8q-10 -18 -44 -52q-48 -49 -111 -75q-66 -28 -137 -28t-136 28
q-63 26 -111.5 74.5t-75.5 111.5q-23 52 -27 111l-29 -68q32 -129 137.5 -213t241.5 -84q131 0 234.5 78t139.5 201q20 2 33 17t13 35z" />
    <glyph glyph-name="temperature" unicode="&#xe8bc;" 
d="M919 390q0 -110 -54.5 -203.5t-147.5 -147.5t-203 -54t-203.5 54t-147.5 147.5t-54 203.5t54 203.5t147.5 147.5t203.5 54t203 -54t147.5 -147.5t54.5 -203.5zM512.5 763q-101.5 0 -187.5 -50t-136 -136t-50 -187.5t50 -187.5t136 -136t187.5 -50t187.5 50t136 136
t50 187.5t-50 187.5t-136 136t-187.5 50zM590 326v268q0 32 -23 55t-55.5 23t-55 -23t-22.5 -55v-268q-48 -38 -48 -98q0 -52 37 -88.5t89 -36.5t88.5 36.5t36.5 88.5q0 60 -47 98zM512 127q-42 0 -71.5 29.5t-29.5 71.5q0 52 42 82l5 4v280q0 22 16 38t38 16t37.5 -16
t15.5 -38v-280l6 -4q42 -30 42 -82q0 -42 -29.5 -71.5t-71.5 -29.5zM681 348h-68q-6 0 -6 -6.5t6 -6.5h68q6 0 6 6.5t-6 6.5zM613 370h42q6 0 6 6t-6 6h-42q-6 0 -6 -6t6 -6zM613 404h42q6 0 6 6.5t-6 6.5h-42q-6 0 -6 -6.5t6 -6.5zM613 439h42q6 0 6 6t-6 6h-42q-6 0 -6 -6
t6 -6zM613 474h42q6 0 6 6t-6 6h-42q-6 0 -6 -6t6 -6zM563 300l-10 8v258h-83v-258l-10 -8q-37 -26 -37 -72q0 -37 26 -63t63 -26t63 26t26 63q0 46 -38 72z" />
    <glyph glyph-name="payment" unicode="&#xe63d;" 
d="M887 133h-187q-6 0 -11 -3l-177 -105h-264q-18 0 -31 13t-13 31v17q0 18 13 31.5t31 13.5h129q4 -15 14 -25l6 -6q15 -15 37 -15q21 0 36 14l148 113q8 6 8 17q0 7 -4 13q-6 7 -15 8.5t-16 -4.5l-148 -113l-2 -2q-7 -7 -14 0l-5 5q-3 3 -3 7t3 7l233 228h232
q9 0 15.5 6.5t6.5 15.5t-6.5 15.5t-15.5 6.5h-78q2 20 2 36q0 94 -46.5 174.5t-126.5 127t-174.5 46.5t-174.5 -46.5t-127 -127t-47 -174.5q0 -56 22 -123t58 -108q7 -7 17 -7q8 0 14 5q7 6 7.5 15t-5.5 16q-31 34 -50 93.5t-19 108.5q0 126 89 215.5t215.5 89.5
t215.5 -89.5t89 -215.5q0 -16 -2 -36h-119q-7 0 -14 -6q-4 -2 -5 -3l-237 -232q-2 -3 -5 -7h-138q-36 0 -62 -26t-26 -62v-17q0 -36 26 -62t62 -26h270q6 0 12 3l176 106h181q9 0 15.5 6t6.5 15t-6.5 15.5t-15.5 6.5zM358 432q-9 0 -15.5 -6.5t-6.5 -15.5t6.5 -15.5
t15.5 -6.5h78v-55q0 -9 6.5 -15t15.5 -6t15.5 6t6.5 15v55h78q9 0 15.5 6.5t6.5 15.5t-6.5 15.5t-15.5 6.5h-78v38h78q9 0 15.5 6.5t6.5 15.5t-6.5 15t-15.5 6h-43l38 80q4 8 1 16t-11 12t-16.5 1t-12.5 -11l-47 -98h-23l-47 98q-4 8 -12.5 11t-16.5 -1t-11 -12t1 -17
l38 -79h-38q-9 0 -15.5 -6t-6.5 -15t6.5 -15.5t15.5 -6.5h78v-38h-78z" />
    <glyph glyph-name="alipay" unicode="&#xe600;" horiz-adv-x="1025" 
d="M908 238v389q0 63 -45 108t-108 45h-486q-63 0 -108 -45t-45 -108v-486q0 -63 45 -108t108 -45h486q56 0 98.5 36t51.5 90q-218 94 -306 136q-56 -67 -114.5 -100.5t-136.5 -33.5q-82 0 -131.5 43.5t-42.5 106.5q2 18 8 35.5t20.5 36.5t35.5 32.5t57.5 20t82.5 2.5
q21 -2 40.5 -5t31 -5t32.5 -8t26 -7.5t32 -10.5t31 -11q28 50 45 108h-308v30h152v55h-185v34h185v79q2 12 16 12h76v-91h197v-34h-197v-55h161q-22 -89 -66 -164zM336 168q-41 0 -69.5 11.5t-41 29t-16.5 33.5t-1 29q5 27 32 48.5t72 21.5q101 0 219 -57
q-89 -116 -195 -116z" />
    <glyph glyph-name="parking" unicode="&#xe8be;" 
d="M862 239q22 -8 23 -8q13 -4 16 -8.5t4 -18.5v-9h-32q-15 0 -15 -11q-1 -6 3.5 -9.5t10.5 -3.5h33v-41v-21q-1 -6 5 -11q3 -3 7 -14q1 -1 0.5 -4.5l-0.5 -3.5q1 -15 -5 -20.5t-19 -7.5q-1 0 -20 -2q5 63 -39 101q-33 28 -78 27q-32 -1 -60 -20q-27 -19 -40 -50
q-13 -30 -7 -63h-273q8 68 -43 109q-36 28 -83 23q-45 -5 -76 -44t-21 -93q-29 5 -35 6q-2 0 -6 4q-6 7 -5.5 22.5t7.5 21.5q4 4 4 10q2 13 3 36q0 9 8 10q4 0 25 4q14 3 11.5 14.5t-15.5 9.5q-4 -1 -26 -5q-3 12 9 19q34 23 77 35q14 3 29.5 7t34.5 8t30 7q5 1 9 4
q54 45 114 74q44 22 114 26q60 4 126 -6q28 -4 54 -20q48 -30 76 -50q22 -15 43 -9q1 0 23 4q15 2 18 -10q2 -13 -13 -16q-1 0 -6 -1v-2v0zM595 310q-131 14 -244 -82q23 -5 46 -7.5t51 -2.5t44 0.5t50.5 2.5t46.5 3q1 15 6 86v0zM621 307q-2 -36 -6 -81q40 4 110 10
q-43 61 -104 71v0zM577 171v0h15h1q5 1 8.5 5t3.5 8q-1 11 -13 11q-19 1 -30 0q-13 0 -13 -11.5t13 -12.5h15v0zM577 171zM301 789h147q18 0 32.5 -14t14.5 -32q1 -9 0.5 -42.5t-0.5 -42.5q1 -18 1 -56v-58v-94q-1 -21 -17 -35t-35 -13h-53h-44h-27.5h-26.5h-36
q-81 -1 -93 0q-25 0 -36 10q-21 16 -21 43q-1 163 0 282q0 41 38 51q5 1 10 1h146v0zM161 749q-13 0 -13 -12v-140v-140v0v35.5v70.5v35v-68.5v-72.5v0v0v0q1 -16 17 -16q37 1 71 1h92h37h75q15 0 15 15v78v56v57v42.5v43.5q0 8 -3.5 11.5t-11.5 4.5h-5zM760 -21
q-35 0 -58.5 24t-23.5 59q0 34 24 58t58 24q33 0 57.5 -23.5t25.5 -55.5q1 -36 -24 -61.5t-59 -24.5v0v0zM792 61q0 12 -9.5 21.5t-22 10t-22 -9t-9.5 -22.5q0 -12 9.5 -21.5t21.5 -9.5t21.5 9.5t10.5 21.5v0zM792 61zM181 62q0 33 23.5 57t55.5 25q36 1 61.5 -23.5
t25.5 -58.5q-1 -35 -24.5 -59t-57.5 -24q-36 0 -60 23.5t-24 59.5v0v0zM263 92q-12 0 -21 -9t-9 -22q0 -12 9.5 -21.5t21.5 -9.5q13 0 22 9.5t9 22.5q0 12 -9.5 21.5t-22.5 8.5v0zM263 92zM213 479v230l7 1h93q55 -2 74 -44q10 -25 7.5 -49t-21 -43t-49.5 -24q-3 -1 -51 -2
h-9v-69h-51zM264 593h40q2 0 9 1q13 2 21 11t9 22q1 32 -28 36q-4 0 -51 3v-73v0zM264 593z" />
    <glyph glyph-name="fee" unicode="&#xe8bf;" 
d="M925 329q-30 43 -105 -4q5 20 -7 32t-31 12q-40 0 -65 -27q-14 20 -29.5 25t-35 -1.5t-48.5 -26.5q-35 -23 -54 -34q-4 -3 -10 -6q11 -2 17 -2q26 0 38.5 -0.5t32.5 -2.5t30 -6.5t21 -12.5t15 -21t4 -31q0 -26 -17 -43t-37 -23t-39 -7h-146q-27 0 -56.5 17t-46.5 34
l-16 16q74 -28 123 -28l132 -6q2 0 6 0.5t14.5 2.5t18 6t14.5 12.5t7 19.5q1 26 -18.5 33.5t-79.5 8.5q-26 0 -56 8t-46 16l-17 7q-60 47 -78 60q-21 14 -26.5 17.5t-24 12t-30.5 9t-32 -2t-42 -12.5q-5 -2 -24.5 -9t-31 -12t-25 -14t-18.5 -19q-16 -33 -16 -70t13 -70
q16 -41 33 -56q29 -24 68 -9q35 13 72 -7q162 -89 166 -92q29 -14 57 -18t53.5 3.5t41.5 15t36 19.5q157 96 263 188q29 27 37.5 54t-5.5 44zM493 744q-79 0 -134.5 -56t-55.5 -135t55.5 -135t135.5 -56v0q79 0 134.5 56t55.5 135t-55.5 135t-134.5 56h-1zM563 547h-50v-20
h37h1q8 0 14 -5.5t6 -13.5t-6 -14t-14 -6h-1h-37v-30q0 -8 -5.5 -13.5t-14 -5.5t-14 5.5t-5.5 13.5v30h-39h-1q-8 0 -14 6t-6 14t6 13.5t14 5.5h1h39v20h-50h-1q-8 0 -14 5.5t-6 13.5t6 14t14 6h1h22l-36 36q-5 6 -5 13q0 8 5.5 14t13.5 6t14 -6l55 -55l56 55q6 6 14 6
t13.5 -5.5t5.5 -13.5t-5 -14l-37 -36h23h1q8 0 14 -6t6 -14t-6 -13.5t-14 -5.5h-1v0z" />
  </font>
</defs>
</svg>
